<svg width="80" height="73" viewBox="0 0 80 73" fill="none" xmlns="http://www.w3.org/2000/svg">
<path d="M38.5 18.2095C41.0562 18.8813 43.3496 20.5986 44.6923 23.2264C48.2695 30.2273 42.7107 38.3955 34.9871 37.4874C33.8904 37.3584 32.5585 37.1189 32.0272 36.955L31.0612 36.657L31.0184 47.3207C30.9858 55.4548 31.104 57.9844 31.5166 57.9844C40.5161 55.7132 49.5028 53.3826 58.4301 50.8418V33.778C58.4301 15.4306 58.5323 14.4442 60.704 11.8087C63.373 8.5701 69.0124 7.39409 72.6516 9.31727C78.3814 12.3453 79.924 19.8463 75.7641 24.4519C73.3225 27.1552 71.2377 28.0247 67.7585 27.791C66.1559 27.6833 64.5919 27.5133 64.2829 27.4132C63.8355 27.2684 63.7227 30.6083 63.7288 43.8247C63.7338 52.9511 63.575 60.6686 63.3775 60.9749C62.9766 61.5965 27.0782 71.3467 26.5019 70.9905C26.3008 70.8662 26.1406 60.5712 26.1459 48.1129C26.1482 43.131 26.1697 39.1722 26.2247 36" stroke="url(#paint0_linear_29_10)" stroke-opacity="0.978202" stroke-width="3"/>
<path d="M39.1205 13.3019C39.0985 13.3063 39.0798 13.3181 39.0619 13.3328C38.99 13.3917 38.9193 13.4938 38.4502 14.0179C37.9811 14.5421 37.1144 15.4884 35.1197 17.4685C33.125 19.4487 30.0024 22.463 26.7269 25.3522C23.4514 28.2415 20.023 31.0054 18.2275 32.4147C16.4319 33.824 16.2693 33.8786 16.1724 33.9495C16.0756 34.0203 16.0443 34.1081 16.0286 34.1519C16.0129 34.1956 16.0128 34.195 16.6538 34.9619C16.832 35.1751 17.1198 35.5156 17.3708 35.8142C17.4153 35.7758 17.5011 35.7218 17.6709 35.6178C18.0484 35.3866 18.8041 34.9248 20.1113 33.9218C21.4186 32.9189 23.2781 31.3748 25.1422 29.7904C27.0063 28.206 28.8749 26.5815 30.5446 25.0455C32.2143 23.5094 33.685 22.0619 34.4591 21.3577C34.885 20.9702 35.0966 20.8121 35.2154 20.7618C35.1789 20.4372 35.2633 20.1322 35.4526 19.9052C35.5979 19.7321 35.7977 19.613 36.0289 19.5615C36.2367 19.515 36.4629 19.5249 36.6862 19.5902C36.9095 19.6555 37.1225 19.774 37.3054 19.9347C37.5919 20.1865 37.7853 20.5249 37.8433 20.8755C37.9012 21.2261 37.8189 21.5601 37.6144 21.8042C37.4683 21.9783 37.2672 22.0979 37.0345 22.149C36.8018 22.2001 36.547 22.1807 36.2997 22.093C36.3055 22.1166 36.3118 22.1405 36.3158 22.163C36.341 22.3046 36.3289 22.4135 35.8566 22.9298C35.3842 23.446 34.4515 24.3695 32.5534 26.0834C30.6552 27.7973 27.7914 30.3017 25.505 32.2123C23.2186 34.1229 21.5097 35.4398 20.4423 36.1803C19.3748 36.9208 18.9494 37.0845 18.6613 37.0905C18.5647 37.0925 18.4887 37.0737 18.4206 37.0491C18.7385 37.4173 19.0428 37.7653 19.2765 38.0175C19.9764 38.7726 20.094 38.7494 21.4185 37.8501C22.743 36.9509 25.2742 35.1761 28.0985 32.879C30.9228 30.582 34.0403 27.7632 36.5962 25.1282C39.1521 22.4933 41.1466 20.0423 42.0993 18.7902C43.0519 17.5382 42.9633 17.4849 42.6104 17.1151C42.2575 16.7453 41.64 16.0589 41.041 15.3609C40.4419 14.6628 39.861 13.9524 39.534 13.6051C39.2886 13.3447 39.1866 13.2889 39.1205 13.3019ZM35.4903 21.4699C35.4302 21.579 35.3099 21.7338 35.0781 21.9871C34.6058 22.5033 33.6731 23.4269 31.7749 25.1408C29.8768 26.8547 27.0138 29.3589 24.7274 31.2694C22.4409 33.18 20.731 34.4964 19.6635 35.2369C18.5961 35.9774 18.1709 36.1419 17.8828 36.1479C17.7672 36.1503 17.6788 36.124 17.6035 36.0905C17.8004 36.3238 17.9599 36.5121 18.1624 36.7486C18.2103 36.7103 18.2913 36.6583 18.4497 36.5613C18.8272 36.3301 19.5818 35.8676 20.8891 34.8647C22.1963 33.8618 24.0561 32.3185 25.9202 30.7341C27.7843 29.1497 29.6527 27.5244 31.3223 25.9883C32.992 24.4523 34.463 23.0057 35.237 22.3014C35.5024 22.06 35.6817 21.9105 35.8111 21.8164C35.7944 21.8031 35.778 21.7895 35.7618 21.7756C35.6593 21.6846 35.5678 21.5817 35.4903 21.4699Z" fill="url(#paint1_linear_29_10)"/>
<path d="M36.7176 5.27968C35.1482 5.71857 32.5978 6.72462 29.697 8.00578C26.7961 9.28695 23.5451 10.8434 20.6189 12.5754C17.6927 14.3074 15.0912 16.2152 13.181 17.7242C11.2708 19.2333 10.0519 20.3439 9.08106 21.4133C8.11026 22.4828 7.38749 23.5111 6.87439 24.4846C6.36129 25.4582 6.05829 26.3769 5.99165 27.0903C5.92501 27.8038 6.09469 28.3111 6.37032 28.7524C6.64594 29.1937 7.02708 29.5689 7.48638 29.8976C7.94567 30.2264 8.48316 30.5089 9.27487 30.7312C10.0666 30.9536 11.1126 31.1151 11.8385 31.2798C12.5644 31.4444 12.9699 31.6121 13.5963 32.008C14.2227 32.4039 15.0701 33.0289 15.5408 33.3677C16.0115 33.7065 16.1061 33.7595 16.6275 33.4157C17.1489 33.0719 18.097 32.3314 19.7421 30.9729C21.3871 29.6144 23.7287 27.6378 25.7375 25.8867C27.7463 24.1356 29.4219 22.6097 31.0375 21.0908C32.653 19.572 34.2082 18.0597 35.4106 16.8502C36.613 15.6406 37.4623 14.7339 38.3985 13.5694C39.3348 12.4049 40.358 10.9832 40.8555 9.95123C41.353 8.91928 41.3253 8.27746 41.1793 7.74088C41.0333 7.2043 40.769 6.77247 40.4632 6.34947C40.1574 5.92646 39.8098 5.51208 39.3422 5.24066C38.8746 4.96926 38.287 4.84078 36.7176 5.27968ZM21.5901 21.9812C21.6398 21.9672 21.6592 22.0099 21.6858 22.0781C21.7331 22.1993 21.8028 22.4002 21.837 22.8984C21.8713 23.3965 21.8698 24.1924 21.7806 24.9207C21.6915 25.6491 21.5146 26.3097 21.1827 26.9842C20.8508 27.6586 20.3639 28.3467 19.9716 28.8386C19.8621 28.9758 19.7783 29.0632 19.6839 29.1707C19.771 29.6273 19.6782 30.0518 19.4247 30.3559C19.2354 30.5817 18.9665 30.7293 18.65 30.7811C18.3336 30.833 17.9829 30.787 17.6397 30.6485C17.5481 30.7027 17.4485 30.7535 17.3375 30.8023C16.8424 31.0198 16.1982 31.2204 15.5882 31.2374C14.9783 31.2544 14.4028 31.0875 13.8722 30.8854C13.3416 30.6832 12.8555 30.4461 12.5944 30.3015C12.3333 30.1568 12.2972 30.105 12.2791 30.0791C12.261 30.0532 12.2609 30.0528 12.6783 29.7918C13.0957 29.5309 13.9305 29.0092 14.5706 28.5357C15.2107 28.0622 15.6563 27.637 15.915 27.4411C15.9797 27.3921 16.0321 27.3578 16.0815 27.3409C16.1999 27.3004 16.3033 27.3688 16.4923 27.5803C16.5352 27.5404 16.5812 27.5037 16.63 27.4703C16.4501 27.2953 16.3498 27.2164 16.3182 27.203C16.2742 27.1843 16.274 27.1841 16.9604 26.537C17.6468 25.8899 19.0197 24.5962 19.9055 23.7111C20.7913 22.826 21.1903 22.3495 21.4021 22.1324C21.4948 22.0374 21.5515 21.9922 21.5901 21.9812Z" fill="url(#paint2_linear_29_10)"/>
<path d="M20.2951 39.481C20.4821 40.0098 20.8562 41.0673 21.092 41.9735C21.3278 42.8796 21.4254 43.6344 21.5365 44.1176C21.6476 44.6009 21.7722 44.8125 21.948 45.0196C22.1237 45.2268 22.3505 45.4295 22.6271 45.5792C22.9037 45.7288 23.23 45.8253 23.6546 45.8778C24.0792 45.9304 24.6021 45.939 25.3848 45.6229C26.1674 45.3069 27.2098 44.6662 28.1729 43.9506C29.136 43.235 30.0198 42.4444 30.8206 41.6795C31.6214 40.9146 32.3392 40.1754 33.1998 39.2128C34.0605 38.2502 35.0639 37.0642 35.9326 35.6483C36.8014 34.2323 37.5354 32.5864 38.1143 31.0782C38.6932 29.5699 39.1171 28.1993 39.3418 26.853C39.5666 25.5066 39.5923 24.1846 39.57 23.453C39.5478 22.7213 39.4776 22.58 39.4252 22.5239C39.3729 22.4679 39.3384 22.4972 38.7938 23.0995C38.2493 23.7018 37.1949 24.877 36.1058 25.9869C35.0167 27.0969 33.893 28.1415 32.6038 29.2947C31.3146 30.4479 29.8599 31.7097 28.0515 33.1388C26.243 34.568 24.0809 36.1644 22.7074 37.134C21.3338 38.1035 20.7488 38.4461 20.447 38.6446C20.1451 38.8432 20.1266 38.8976 20.1174 38.9249C20.1081 38.9522 20.1081 38.9522 20.2951 39.481Z" fill="url(#paint3_linear_29_10)"/>
<defs>
<linearGradient id="paint0_linear_29_10" x1="74.9176" y1="15.3708" x2="29.4846" y2="62.8876" gradientUnits="userSpaceOnUse">
<stop stop-color="#0024FF"/>
<stop offset="1" stop-color="#EF00FF"/>
</linearGradient>
<linearGradient id="paint1_linear_29_10" x1="25.0298" y1="12.493" x2="33.978" y2="46.1867" gradientUnits="userSpaceOnUse">
<stop stop-color="#1510FF"/>
<stop offset="1" stop-color="#00FFF9"/>
</linearGradient>
<linearGradient id="paint2_linear_29_10" x1="25.0295" y1="12.4924" x2="33.9776" y2="46.1859" gradientUnits="userSpaceOnUse">
<stop stop-color="#1510FF"/>
<stop offset="1" stop-color="#00FFF9"/>
</linearGradient>
<linearGradient id="paint3_linear_29_10" x1="25.0303" y1="12.4933" x2="33.713" y2="46.2558" gradientUnits="userSpaceOnUse">
<stop stop-color="#1510FF"/>
<stop offset="1" stop-color="#00FFF9"/>
</linearGradient>
</defs>
</svg>